<mxfile host="app.diagrams.net" agent="Mozilla/5.0 (Windows NT 10.0; Win64; x64) AppleWebKit/537.36 (KHTML, like Gecko) Chrome/138.0.0.0 Safari/537.36" version="28.0.7">
  <diagram name="第 1 页" id="-zi2jbwvVHgvnpBosArk">
    <mxGraphModel dx="1426" dy="743" grid="1" gridSize="10" guides="1" tooltips="1" connect="1" arrows="1" fold="1" page="1" pageScale="1" pageWidth="5000" pageHeight="5000" math="0" shadow="0">
      <root>
        <mxCell id="0" />
        <mxCell id="1" parent="0" />
        <mxCell id="_BM-QSgADzKD-mihh4dB-2" style="edgeStyle=orthogonalEdgeStyle;rounded=1;orthogonalLoop=1;jettySize=auto;html=1;exitX=0.5;exitY=1;exitDx=0;exitDy=0;entryX=0.5;entryY=0;entryDx=0;entryDy=0;labelBackgroundColor=none;fontColor=default;sketch=1;curveFitting=1;jiggle=2;" edge="1" parent="1" source="_BM-QSgADzKD-mihh4dB-3" target="_BM-QSgADzKD-mihh4dB-9">
          <mxGeometry relative="1" as="geometry" />
        </mxCell>
        <mxCell id="_BM-QSgADzKD-mihh4dB-3" value="开始" style="rounded=1;whiteSpace=wrap;html=1;labelBackgroundColor=none;sketch=1;curveFitting=1;jiggle=2;" vertex="1" parent="1">
          <mxGeometry x="450.0899999999999" y="80" width="60" height="30" as="geometry" />
        </mxCell>
        <mxCell id="_BM-QSgADzKD-mihh4dB-9" value="CAN连接" style="rounded=1;whiteSpace=wrap;html=1;labelBackgroundColor=none;sketch=1;curveFitting=1;jiggle=2;" vertex="1" parent="1">
          <mxGeometry x="437.5199999999999" y="140" width="85.14" height="30" as="geometry" />
        </mxCell>
        <mxCell id="_BM-QSgADzKD-mihh4dB-42" style="edgeStyle=orthogonalEdgeStyle;rounded=0;sketch=1;hachureGap=4;jiggle=2;curveFitting=1;orthogonalLoop=1;jettySize=auto;html=1;exitX=0.5;exitY=1;exitDx=0;exitDy=0;entryX=0.5;entryY=0;entryDx=0;entryDy=0;fontFamily=Architects Daughter;fontSource=https%3A%2F%2Ffonts.googleapis.com%2Fcss%3Ffamily%3DArchitects%2BDaughter;" edge="1" parent="1" source="_BM-QSgADzKD-mihh4dB-39" target="_BM-QSgADzKD-mihh4dB-41">
          <mxGeometry relative="1" as="geometry" />
        </mxCell>
        <mxCell id="_BM-QSgADzKD-mihh4dB-39" value="测试参数配置" style="rounded=1;whiteSpace=wrap;html=1;labelBackgroundColor=none;sketch=1;curveFitting=1;jiggle=2;" vertex="1" parent="1">
          <mxGeometry x="440" y="200" width="85.14" height="30" as="geometry" />
        </mxCell>
        <mxCell id="_BM-QSgADzKD-mihh4dB-40" style="edgeStyle=orthogonalEdgeStyle;rounded=0;sketch=1;hachureGap=4;jiggle=2;curveFitting=1;orthogonalLoop=1;jettySize=auto;html=1;exitX=0.5;exitY=1;exitDx=0;exitDy=0;entryX=0.442;entryY=0.06;entryDx=0;entryDy=0;entryPerimeter=0;fontFamily=Architects Daughter;fontSource=https%3A%2F%2Ffonts.googleapis.com%2Fcss%3Ffamily%3DArchitects%2BDaughter;" edge="1" parent="1" source="_BM-QSgADzKD-mihh4dB-9" target="_BM-QSgADzKD-mihh4dB-39">
          <mxGeometry relative="1" as="geometry" />
        </mxCell>
        <mxCell id="_BM-QSgADzKD-mihh4dB-44" style="edgeStyle=orthogonalEdgeStyle;rounded=0;sketch=1;hachureGap=4;jiggle=2;curveFitting=1;orthogonalLoop=1;jettySize=auto;html=1;exitX=0.5;exitY=1;exitDx=0;exitDy=0;entryX=0.5;entryY=0;entryDx=0;entryDy=0;fontFamily=Architects Daughter;fontSource=https%3A%2F%2Ffonts.googleapis.com%2Fcss%3Ffamily%3DArchitects%2BDaughter;" edge="1" parent="1" source="_BM-QSgADzKD-mihh4dB-41" target="_BM-QSgADzKD-mihh4dB-43">
          <mxGeometry relative="1" as="geometry" />
        </mxCell>
        <mxCell id="_BM-QSgADzKD-mihh4dB-41" value="设置测试数据保存路径" style="rounded=1;whiteSpace=wrap;html=1;labelBackgroundColor=none;sketch=1;curveFitting=1;jiggle=2;" vertex="1" parent="1">
          <mxGeometry x="395.09" y="260" width="170" height="30" as="geometry" />
        </mxCell>
        <mxCell id="_BM-QSgADzKD-mihh4dB-43" value="开始测试" style="rounded=1;whiteSpace=wrap;html=1;labelBackgroundColor=none;sketch=1;curveFitting=1;jiggle=2;" vertex="1" parent="1">
          <mxGeometry x="445.09000000000003" y="320" width="70" height="30" as="geometry" />
        </mxCell>
        <mxCell id="_BM-QSgADzKD-mihh4dB-48" style="edgeStyle=orthogonalEdgeStyle;rounded=0;sketch=1;hachureGap=4;jiggle=2;curveFitting=1;orthogonalLoop=1;jettySize=auto;html=1;exitX=0.5;exitY=1;exitDx=0;exitDy=0;fontFamily=Architects Daughter;fontSource=https%3A%2F%2Ffonts.googleapis.com%2Fcss%3Ffamily%3DArchitects%2BDaughter;" edge="1" parent="1" source="_BM-QSgADzKD-mihh4dB-45" target="_BM-QSgADzKD-mihh4dB-47">
          <mxGeometry relative="1" as="geometry" />
        </mxCell>
        <mxCell id="_BM-QSgADzKD-mihh4dB-45" value="数据实时图表显示" style="rounded=1;whiteSpace=wrap;html=1;labelBackgroundColor=none;sketch=1;curveFitting=1;jiggle=2;" vertex="1" parent="1">
          <mxGeometry x="428.88" y="380" width="102.43" height="30" as="geometry" />
        </mxCell>
        <mxCell id="_BM-QSgADzKD-mihh4dB-46" style="edgeStyle=orthogonalEdgeStyle;rounded=0;sketch=1;hachureGap=4;jiggle=2;curveFitting=1;orthogonalLoop=1;jettySize=auto;html=1;exitX=0.5;exitY=1;exitDx=0;exitDy=0;entryX=0.472;entryY=-0.06;entryDx=0;entryDy=0;entryPerimeter=0;fontFamily=Architects Daughter;fontSource=https%3A%2F%2Ffonts.googleapis.com%2Fcss%3Ffamily%3DArchitects%2BDaughter;" edge="1" parent="1" source="_BM-QSgADzKD-mihh4dB-43" target="_BM-QSgADzKD-mihh4dB-45">
          <mxGeometry relative="1" as="geometry" />
        </mxCell>
        <mxCell id="_BM-QSgADzKD-mihh4dB-47" value="结束" style="rounded=1;whiteSpace=wrap;html=1;labelBackgroundColor=none;sketch=1;curveFitting=1;jiggle=2;" vertex="1" parent="1">
          <mxGeometry x="450" y="440" width="60" height="30" as="geometry" />
        </mxCell>
        <mxCell id="_BM-QSgADzKD-mihh4dB-49" style="edgeStyle=orthogonalEdgeStyle;rounded=0;sketch=1;hachureGap=4;jiggle=2;curveFitting=1;orthogonalLoop=1;jettySize=auto;html=1;exitX=1;exitY=0.5;exitDx=0;exitDy=0;entryX=0;entryY=0.5;entryDx=0;entryDy=0;fontFamily=Architects Daughter;fontSource=https%3A%2F%2Ffonts.googleapis.com%2Fcss%3Ffamily%3DArchitects%2BDaughter;" edge="1" parent="1" source="_BM-QSgADzKD-mihh4dB-54" target="_BM-QSgADzKD-mihh4dB-56">
          <mxGeometry relative="1" as="geometry" />
        </mxCell>
        <mxCell id="_BM-QSgADzKD-mihh4dB-50" style="edgeStyle=orthogonalEdgeStyle;rounded=0;sketch=1;hachureGap=4;jiggle=2;curveFitting=1;orthogonalLoop=1;jettySize=auto;html=1;exitX=1;exitY=0.5;exitDx=0;exitDy=0;entryX=0;entryY=0.5;entryDx=0;entryDy=0;fontFamily=Architects Daughter;fontSource=https%3A%2F%2Ffonts.googleapis.com%2Fcss%3Ffamily%3DArchitects%2BDaughter;" edge="1" parent="1" source="_BM-QSgADzKD-mihh4dB-54" target="_BM-QSgADzKD-mihh4dB-61">
          <mxGeometry relative="1" as="geometry" />
        </mxCell>
        <mxCell id="_BM-QSgADzKD-mihh4dB-51" style="edgeStyle=orthogonalEdgeStyle;rounded=0;sketch=1;hachureGap=4;jiggle=2;curveFitting=1;orthogonalLoop=1;jettySize=auto;html=1;exitX=1;exitY=0.5;exitDx=0;exitDy=0;entryX=0;entryY=0.5;entryDx=0;entryDy=0;fontFamily=Architects Daughter;fontSource=https%3A%2F%2Ffonts.googleapis.com%2Fcss%3Ffamily%3DArchitects%2BDaughter;" edge="1" parent="1" source="_BM-QSgADzKD-mihh4dB-54" target="_BM-QSgADzKD-mihh4dB-62">
          <mxGeometry relative="1" as="geometry" />
        </mxCell>
        <mxCell id="_BM-QSgADzKD-mihh4dB-52" style="edgeStyle=orthogonalEdgeStyle;rounded=0;sketch=1;hachureGap=4;jiggle=2;curveFitting=1;orthogonalLoop=1;jettySize=auto;html=1;exitX=1;exitY=0.5;exitDx=0;exitDy=0;entryX=0;entryY=0.5;entryDx=0;entryDy=0;fontFamily=Architects Daughter;fontSource=https%3A%2F%2Ffonts.googleapis.com%2Fcss%3Ffamily%3DArchitects%2BDaughter;" edge="1" parent="1" source="_BM-QSgADzKD-mihh4dB-54" target="_BM-QSgADzKD-mihh4dB-63">
          <mxGeometry relative="1" as="geometry" />
        </mxCell>
        <mxCell id="_BM-QSgADzKD-mihh4dB-53" style="edgeStyle=orthogonalEdgeStyle;rounded=0;sketch=1;hachureGap=4;jiggle=2;curveFitting=1;orthogonalLoop=1;jettySize=auto;html=1;exitX=1;exitY=0.5;exitDx=0;exitDy=0;entryX=0;entryY=0.5;entryDx=0;entryDy=0;fontFamily=Architects Daughter;fontSource=https%3A%2F%2Ffonts.googleapis.com%2Fcss%3Ffamily%3DArchitects%2BDaughter;" edge="1" parent="1" source="_BM-QSgADzKD-mihh4dB-54" target="_BM-QSgADzKD-mihh4dB-67">
          <mxGeometry relative="1" as="geometry" />
        </mxCell>
        <mxCell id="_BM-QSgADzKD-mihh4dB-74" style="edgeStyle=orthogonalEdgeStyle;rounded=0;sketch=1;hachureGap=4;jiggle=2;curveFitting=1;orthogonalLoop=1;jettySize=auto;html=1;exitX=1;exitY=0.5;exitDx=0;exitDy=0;entryX=0;entryY=0.5;entryDx=0;entryDy=0;fontFamily=Architects Daughter;fontSource=https%3A%2F%2Ffonts.googleapis.com%2Fcss%3Ffamily%3DArchitects%2BDaughter;" edge="1" parent="1" source="_BM-QSgADzKD-mihh4dB-54" target="_BM-QSgADzKD-mihh4dB-71">
          <mxGeometry relative="1" as="geometry" />
        </mxCell>
        <mxCell id="_BM-QSgADzKD-mihh4dB-75" style="edgeStyle=orthogonalEdgeStyle;rounded=0;sketch=1;hachureGap=4;jiggle=2;curveFitting=1;orthogonalLoop=1;jettySize=auto;html=1;exitX=1;exitY=0.5;exitDx=0;exitDy=0;entryX=0;entryY=0.5;entryDx=0;entryDy=0;fontFamily=Architects Daughter;fontSource=https%3A%2F%2Ffonts.googleapis.com%2Fcss%3Ffamily%3DArchitects%2BDaughter;" edge="1" parent="1" source="_BM-QSgADzKD-mihh4dB-54" target="_BM-QSgADzKD-mihh4dB-72">
          <mxGeometry relative="1" as="geometry" />
        </mxCell>
        <mxCell id="_BM-QSgADzKD-mihh4dB-54" value="定时器初始化" style="rounded=1;whiteSpace=wrap;html=1;labelBackgroundColor=none;sketch=1;curveFitting=1;jiggle=2;" vertex="1" parent="1">
          <mxGeometry x="980" y="500" width="130" height="30" as="geometry" />
        </mxCell>
        <mxCell id="_BM-QSgADzKD-mihh4dB-55" style="edgeStyle=orthogonalEdgeStyle;rounded=1;orthogonalLoop=1;jettySize=auto;html=1;exitX=1;exitY=0.5;exitDx=0;exitDy=0;entryX=0;entryY=0.5;entryDx=0;entryDy=0;labelBackgroundColor=none;fontColor=default;sketch=1;curveFitting=1;jiggle=2;" edge="1" parent="1" source="_BM-QSgADzKD-mihh4dB-56" target="_BM-QSgADzKD-mihh4dB-60">
          <mxGeometry relative="1" as="geometry" />
        </mxCell>
        <mxCell id="_BM-QSgADzKD-mihh4dB-56" value="定时读取CAN数据ReadCanDataFunc()" style="rounded=1;whiteSpace=wrap;html=1;labelBackgroundColor=none;sketch=1;curveFitting=1;jiggle=2;" vertex="1" parent="1">
          <mxGeometry x="1170" y="334" width="230" height="30" as="geometry" />
        </mxCell>
        <mxCell id="_BM-QSgADzKD-mihh4dB-60" value="&lt;div&gt;接收CAN数据解析dataAnalysis_can()&lt;/div&gt;" style="rounded=1;whiteSpace=wrap;html=1;labelBackgroundColor=none;sketch=1;curveFitting=1;jiggle=2;" vertex="1" parent="1">
          <mxGeometry x="1460" y="334" width="240" height="30" as="geometry" />
        </mxCell>
        <mxCell id="_BM-QSgADzKD-mihh4dB-61" value="定时电机状态检查checkMotorSta()" style="rounded=1;whiteSpace=wrap;html=1;labelBackgroundColor=none;sketch=1;curveFitting=1;jiggle=2;" vertex="1" parent="1">
          <mxGeometry x="1170" y="384" width="230" height="30" as="geometry" />
        </mxCell>
        <mxCell id="_BM-QSgADzKD-mihh4dB-62" value="测试变速onTimerTimeout()" style="rounded=1;whiteSpace=wrap;html=1;labelBackgroundColor=none;sketch=1;curveFitting=1;jiggle=2;" vertex="1" parent="1">
          <mxGeometry x="1170" y="434" width="170" height="30" as="geometry" />
        </mxCell>
        <mxCell id="_BM-QSgADzKD-mihh4dB-63" value="图表数据更新customPlotinfo1Update()" style="rounded=1;whiteSpace=wrap;html=1;labelBackgroundColor=none;sketch=1;curveFitting=1;jiggle=2;" vertex="1" parent="1">
          <mxGeometry x="1170" y="484" width="230" height="30" as="geometry" />
        </mxCell>
        <mxCell id="_BM-QSgADzKD-mihh4dB-67" value="测试时长计时updateTime()" style="rounded=1;whiteSpace=wrap;html=1;labelBackgroundColor=none;sketch=1;curveFitting=1;jiggle=2;" vertex="1" parent="1">
          <mxGeometry x="1170" y="530" width="170" height="30" as="geometry" />
        </mxCell>
        <mxCell id="_BM-QSgADzKD-mihh4dB-70" value="motorBatchTestTool" style="rounded=1;whiteSpace=wrap;html=1;labelBackgroundColor=none;sketch=1;curveFitting=1;jiggle=2;" vertex="1" parent="1">
          <mxGeometry x="710" y="363" width="130" height="30" as="geometry" />
        </mxCell>
        <mxCell id="_BM-QSgADzKD-mihh4dB-71" value="定时表格写数据saveTimeHandle()" style="rounded=1;whiteSpace=wrap;html=1;labelBackgroundColor=none;sketch=1;curveFitting=1;jiggle=2;" vertex="1" parent="1">
          <mxGeometry x="1170" y="580" width="200" height="30" as="geometry" />
        </mxCell>
        <mxCell id="_BM-QSgADzKD-mihh4dB-72" value="定时查询电机温度queryTempData()" style="rounded=1;whiteSpace=wrap;html=1;labelBackgroundColor=none;sketch=1;curveFitting=1;jiggle=2;" vertex="1" parent="1">
          <mxGeometry x="1170" y="630" width="200" height="30" as="geometry" />
        </mxCell>
      </root>
    </mxGraphModel>
  </diagram>
</mxfile>
